<?xml version="1.0" encoding="utf-8"?>
<!-- Generator: Adobe Illustrator 17.1.0, SVG Export Plug-In . SVG Version: 6.00 Build 0)  -->
<!DOCTYPE svg PUBLIC "-//W3C//DTD SVG 1.1//EN" "http://www.w3.org/Graphics/SVG/1.1/DTD/svg11.dtd">
<svg version="1.1" id="Layer_1" xmlns="http://www.w3.org/2000/svg" xmlns:xlink="http://www.w3.org/1999/xlink" x="0px" y="0px"
	 viewBox="0 0 612 792" enable-background="new 0 0 612 792" xml:space="preserve">
<polygon fill="#F4F4F4" points="564.8,402.4 536.5,415.4 468.4,394 429.6,415.4 306.5,360.7 210.1,407.3 185.3,414.9 123.4,387.7 
	55.4,414.9 44,407.3 0,424.6 0,480.4 615.1,480.4 615.1,439.1 "/>
<linearGradient id="SVGID_1_" gradientUnits="userSpaceOnUse" x1="489.0302" y1="88.2041" x2="489.0302" y2="181.164" gradientTransform="matrix(0.9435 0 0 0.9435 0 305.453)">
	<stop  offset="0" style="stop-color:#99999A"/>
	<stop  offset="1" style="stop-color:#E2E2E1;stop-opacity:0"/>
</linearGradient>
<polygon opacity="0.48" fill="url(#SVGID_1_)" enable-background="new    " points="611.8,440.6 609.8,437.8 592,437.2 563.1,421.1 
	553.3,425.5 537.2,422.9 502,429.9 457,419 457,433 428.7,423.2 410.2,445.3 359.5,419 346.2,425.7 333.5,426.7 310.8,440.4 
	310.8,475.1 612,480.4 "/>
<linearGradient id="SVGID_2_" gradientUnits="userSpaceOnUse" x1="162.1622" y1="88.2041" x2="162.1622" y2="181.164" gradientTransform="matrix(0.9435 0 0 0.9435 0 305.453)">
	<stop  offset="0" style="stop-color:#99999A"/>
	<stop  offset="1" style="stop-color:#E2E2E1;stop-opacity:0"/>
</linearGradient>
<polygon opacity="0.48" fill="url(#SVGID_2_)" enable-background="new    " points="281.4,426.4 268.7,425.3 255.4,418.6 170,445 
	151.6,422.9 123.3,432.7 123.3,418.6 78.3,429.5 43.1,422.5 27,425.1 17.1,420.8 1.9,429.3 1.9,479.5 304.1,474.8 304.1,440.1 "/>
<polygon fill="#E4203A" points="359.8,337 332.7,343.6 305.6,350.2 305.6,337 305.6,323.9 332.7,330.5 "/>
</svg>
